<svg width="35" height="28" viewBox="0 0 35 28" fill="none" xmlns="http://www.w3.org/2000/svg">
<path d="M31.9132 16.4294L34.6917 5.2794C34.8924 4.47435 34.2214 3.70774 33.3162 3.70774H10.2294L9.69068 1.30567C9.55643 0.706948 8.97876 0.276978 8.30864 0.276978H2.28224C1.50315 0.276978 0.871582 0.85297 0.871582 1.56351V2.4212C0.871582 3.13174 1.50315 3.70774 2.28224 3.70774H6.38979L10.5188 22.1178C9.53098 22.6359 8.86532 23.6073 8.86532 24.7211C8.86532 26.3791 10.339 27.7231 12.1569 27.7231C13.9747 27.7231 15.4484 26.3791 15.4484 24.7211C15.4484 23.8809 15.0695 23.1218 14.4595 22.5769H26.7821C26.1722 23.1218 25.7932 23.8809 25.7932 24.7211C25.7932 26.3791 27.2669 27.7231 29.0848 27.7231C30.9027 27.7231 32.3763 26.3791 32.3763 24.7211C32.3763 23.5326 31.6188 22.5055 30.5202 22.0191L30.8445 20.7178C31.0451 19.9128 30.3741 19.1462 29.4689 19.1462H13.692L13.3073 17.4308H30.5376C31.1962 17.4308 31.7672 17.0151 31.9132 16.4294Z" fill="white"/>
</svg>
